<?xml version="1.0" encoding="UTF-8"?>
<svg id="Layer_1" data-name="Layer 1" xmlns="http://www.w3.org/2000/svg" xmlns:xlink="http://www.w3.org/1999/xlink" viewBox="0 0 450 150">
  <defs>
    <radialGradient id="radial-gradient" cx="60.05" cy="71.3" fx="60.05" fy="71.3" r="49.35" gradientUnits="userSpaceOnUse">
      <stop offset="0" stop-color="#faaf40"/>
      <stop offset="1" stop-color="#f05a28"/>
    </radialGradient>
    <radialGradient id="radial-gradient-2" cx="56.83" cy="82.21" fx="56.83" fy="82.21" r="37.94" xlink:href="#radial-gradient"/>
    <radialGradient id="radial-gradient-3" cx="64.56" cy="94.18" fx="64.56" fy="94.18" r="29.12" xlink:href="#radial-gradient"/>
  </defs>
  <g>
    <path d="m260.4,112.5c-.99-1.21-1.32-2.6-1.01-4.18l3.64-18.12h4.65c1.3,0,2.53-.28,3.67-.84,1.15-.56,2.11-1.36,2.9-2.39.79-1.03,1.29-2.18,1.52-3.44h-11.38l1.95-9.7h-18.46l-1.95,9.7h-3.44c-2.02,0-3.79.63-5.32,1.89-1.53,1.26-2.47,2.85-2.83,4.78h10.17l-3.84,18.86c-.63,3.1.04,5.86,2.02,8.29,1.98,2.42,4.53,3.64,7.68,3.64h21.49c1.98,0,3.74-.63,5.29-1.89,1.55-1.26,2.5-2.85,2.86-4.78h-15.76c-1.57,0-2.85-.61-3.84-1.82Z"/>
    <path d="m330.11,83.47h-38.39l-7.41,37.52h18.59l5.99-30.85h7.34c1.57,0,2.86.61,3.87,1.82,1.01,1.21,1.36,2.58,1.04,4.11l-4.98,24.92h18.52l5.12-25.66c.63-3.05-.06-5.79-2.05-8.22-2-2.42-4.55-3.64-7.64-3.64Z"/>
    <polygon points="370.78 73.84 352.26 73.84 350.91 80.51 369.43 80.51 370.78 73.84"/>
    <polygon points="350.3 83.47 342.62 120.99 361.21 120.99 368.76 83.47 350.3 83.47"/>
    <polygon points="425 83.47 414.09 83.47 403.58 91.82 397.65 83.47 374.68 83.47 388.83 103.48 366.8 120.99 377.65 120.99 392.74 109 401.22 120.99 424.46 120.99 407.55 97.35 425 83.47"/>
    <path d="m141.58,96.2c-1.57,1.27-2.56,2.88-2.98,4.85h14.41l-2.29,11.18c-.13.67-.23,1.35-.27,2.02l-3.44.07-.74-.07c-.45,0-1.07-.08-1.85-.24-.79-.16-1.65-.37-2.59-.64-.94-.27-1.89-.68-2.83-1.25-3.7-2.2-5.26-5.98-5.09-10.2.24-6.23,2.8-14.05,9.05-16.59,5.13-2.09,10.75-2.44,16.23-2.3.47.01,2.71.16,5.37.37,6.01.46,11.41-3.65,12.57-9.56h0s-25.6,0-25.6,0h-1.21c-.85,0-1.96.07-3.33.2-1.37.14-2.95.35-4.75.64-1.8.29-3.7.76-5.73,1.41-2.02.65-4.04,1.41-6.06,2.29-2.02.88-3.97,2.08-5.86,3.6-1.89,1.53-3.57,3.22-5.05,5.09-1.48,1.86-2.72,4.15-3.7,6.87-.99,2.72-1.59,5.67-1.82,8.86-.05.85-.02,1.63.07,2.32.09.7.26,1.49.51,2.39.25.9.7,1.85,1.35,2.86.65,1.01,1.45,2.01,2.39,3,.94.99,2.22,1.94,3.84,2.86,1.62.92,3.46,1.73,5.52,2.43,2.06.7,4.6,1.25,7.61,1.65,3.01.4,6.31.61,9.9.61h6.33c.72,1.84,1.77,3.48,3.17,4.92,1.39,1.44,3.03,2.57,4.92,3.4,1.89.83,3.88,1.25,5.99,1.25l3.1-15.29c.09-.31.18-.65.27-1.01h-.07l2.63-13.13h.07l1.28-6.67h-25.99c-1.93,0-3.82.61-5.32,1.82Z"/>
    <path d="m228.27,89.53c-.76-1.84-1.98-3.31-3.64-4.41-1.66-1.1-3.5-1.65-5.52-1.65h-28.09c-.63,3.16,1.74,6.12,4.96,6.21s6.44.28,8.91.46h3.64c.45,0,.86.14,1.25.4.38.27.66.62.84,1.04.18.43.22.87.13,1.31l-.2,1.15h-3.03c-1.17.05-2.69.14-4.58.27-1.89.14-3.97.34-6.26.61-2.29.27-4.59.67-6.9,1.21-2.31.54-4.46,1.19-6.43,1.95-1.98.76-3.63,1.76-4.95,3-1.33,1.24-2.1,2.59-2.32,4.08l-.07.54c-.05.36-.03.83.03,1.41.07.58.19,1.26.37,2.02.18.76.56,1.57,1.15,2.42.58.85,1.3,1.71,2.16,2.56.85.85,2.04,1.67,3.57,2.46,1.53.79,3.24,1.49,5.15,2.12,1.91.63,4.3,1.15,7.17,1.55,2.87.4,6.02.65,9.43.74h18.59l5.19-25.66c.4-2.02.22-3.95-.54-5.79Zm-21.82,24.65c-1.21-.13-2.36-.33-3.44-.57-1.08-.25-2.22-.61-3.44-1.08s-2.14-1.13-2.8-1.99c-.65-.85-.93-1.86-.84-3.03v-.54c0-.36.21-.81.64-1.35.43-.54,1.03-1.09,1.82-1.65.79-.56,2.11-1.11,3.97-1.65,1.86-.54,4.1-.94,6.7-1.21l-2.63,13.07Z"/>
  </g>
  <g>
    <path d="m92.99,94.78c-8.49,0-16.98,0-25.46.01l.22,2.22c.86.04,1.73.07,2.59.11,5.36,7.04,4.48,17.55-1.89,22.55-6.37,5-17.22,3.69-23.28-2.8-3.71-3.97-5.52-9.34-5.7-14.47s1.18-10.08,3.1-14.66c3.69-8.81,9.44-16.47,14.88-24.24,5.44-7.77,10.68-15.88,13.18-25.19,2.43-9.08,1.69-19.02-3.07-27.99,1.35,8.82-1.67,17.23-5.09,24.81-3.53,7.81-7.99,15.14-13.14,21.93s-10.74,13.47-15.28,20.85c-1.2,1.96-2.33,3.97-3.36,6.03-4,8.1-6.29,17.75-3.06,26.84,2.63,7.38,8.75,13.59,15.89,17.2,7.14,3.61,15.2,4.76,22.81,4.14,10.27-.84,20.49-5.38,24.93-14.21,2.01-3.99,2.72-8.62,2.74-13.24.02-3.29-.3-6.61-.94-9.9h-.07Z" style="fill: url(#radial-gradient);"/>
    <path d="m60.73,129.47l-4.11-6.89c-4.25-.52-8.45-2.47-11.46-5.7-1.18-1.27-2.17-2.68-2.98-4.18-.76,4.62-.93,10.56,1.59,15.41,7.07,3.51,15.03,4.63,22.56,4.02.5-.04,1.01-.09,1.51-.15l-7.11-2.5Z" style="fill: #bf3b27;"/>
    <path d="m92.99,94.78c-8.49,0-16.98,0-25.46.01l.22,2.22c.86.04,1.73.07,2.59.11,5.36,7.04,4.48,17.55-1.89,22.55-6.37,5-17.22,3.69-23.28-2.8-3.71-3.97-5.52-9.34-5.7-14.47s1.18-10.08,3.1-14.66c3.69-8.81,9.44-16.47,14.88-24.24,5.44-7.77,10.68-15.88,13.18-25.19,2.43-9.08,1.69-19.02-3.07-27.99,1.35,8.82-1.67,17.23-5.09,24.81-3.53,7.81-7.99,15.14-13.14,21.93s-10.74,13.47-15.28,20.85c-1.2,1.96-2.33,3.97-3.36,6.03-4,8.1-6.29,17.75-3.06,26.84,2.63,7.38,8.75,13.59,15.89,17.2,7.14,3.61,15.2,4.76,22.81,4.14,10.27-.84,20.49-5.38,24.93-14.21,2.01-3.99,2.72-8.62,2.74-13.24.02-3.29-.3-6.61-.94-9.9h-.07Z" style="fill: url(#radial-gradient);"/>
    <path d="m71.6,64.49c5.35-10.16,8.56-20.98,2.88-31.8,1.3,8.64-2.01,17.4-5.96,24.9-6.17,11.72-14.85,21.54-21.91,32.62h0s-25.82,33.54,3.84,40.62l4.08.89s-24-5.15-3.61-36.49c6.83-10.32,14.88-19.69,20.69-30.75Z" style="fill: url(#radial-gradient-2);"/>
    <path d="m74.72,78.75c3.6-6.57,7.37-11.92,4.44-22.66.27,5.97-3.38,12.06-6.11,16.75-7.51,12.9-18.75,23.94-23.12,38.68-1.07,3.6-1.48,7.65-.33,11.29.72,2.31,2.05,4.4,3.81,5.96,2.82,2.49,6.63,3.55,10.25,3.49,1.34-.02,2.68-.23,4-.43,1.45-.22,2.9-.52,4.31-.91-1.85.03-3.7-.24-5.51-.66-3.18-.75-6.36-2.16-8.46-4.94-.62-.82-1.14-1.74-1.53-2.72-.5-1.27-.81-2.67-.87-4.17-.29-7.41,3.18-14.46,7-20.41,4.09-6.36,8.46-12.61,12.11-19.27Z" style="fill: url(#radial-gradient-3);"/>
  </g>
</svg>