<svg xmlns="http://www.w3.org/2000/svg" xmlns:xlink="http://www.w3.org/1999/xlink" width="1097.383" height="213.872" viewBox="0 0 1097.383 213.872">
  <defs>
    <linearGradient id="linear-gradient" x1="-0.033" y1="-0.124" x2="0.623" y2="0.647" gradientUnits="objectBoundingBox">
      <stop offset="0.209" stop-color="#99d4ff"/>
      <stop offset="0.548" stop-color="#3fadff"/>
      <stop offset="0.807" stop-color="#0092ff"/>
    </linearGradient>
    <linearGradient id="linear-gradient-3" x1="0.148" y1="0.087" x2="0.815" y2="0.869" gradientUnits="objectBoundingBox">
      <stop offset="0.319" stop-color="#0092ff" stop-opacity="0"/>
      <stop offset="0.637" stop-color="#005cc8" stop-opacity="0.616"/>
      <stop offset="0.847" stop-color="#003ca7"/>
    </linearGradient>
    <linearGradient id="linear-gradient-4" x1="0.176" y1="0.119" x2="0.681" y2="0.712" gradientUnits="objectBoundingBox">
      <stop offset="0" stop-color="#d3ffff"/>
      <stop offset="0.681" stop-color="#3fb3ff"/>
      <stop offset="1" stop-color="#0092ff"/>
    </linearGradient>
    <linearGradient id="linear-gradient-5" x1="0.148" y1="0.087" x2="0.815" y2="0.869" gradientUnits="objectBoundingBox">
      <stop offset="0.087" stop-color="#18dcff"/>
      <stop offset="0.332" stop-color="#08adff" stop-opacity="0.369"/>
      <stop offset="0.473" stop-color="#0092ff" stop-opacity="0"/>
    </linearGradient>
    <linearGradient id="linear-gradient-6" x1="0.168" y1="0.151" x2="0.758" y2="0.771" gradientUnits="objectBoundingBox">
      <stop offset="0.57" stop-color="#9a40ff" stop-opacity="0"/>
      <stop offset="0.625" stop-color="#943df6" stop-opacity="0.071"/>
      <stop offset="0.719" stop-color="#8438e0" stop-opacity="0.263"/>
      <stop offset="0.839" stop-color="#6c2ebc" stop-opacity="0.576"/>
      <stop offset="0.98" stop-color="#4a228b"/>
    </linearGradient>
    <linearGradient id="linear-gradient-7" x1="0.229" y1="0.239" x2="1.572" y2="1.533" gradientUnits="objectBoundingBox">
      <stop offset="0.096" stop-color="#c079ff"/>
      <stop offset="0.121" stop-color="#ba71ff" stop-opacity="0.863"/>
      <stop offset="0.177" stop-color="#ad5dff" stop-opacity="0.51"/>
      <stop offset="0.253" stop-color="#9a40ff" stop-opacity="0"/>
    </linearGradient>
    <linearGradient id="linear-gradient-8" x1="0.315" y1="0.321" x2="0.761" y2="0.751" gradientUnits="objectBoundingBox">
      <stop offset="0" stop-color="#d1b7ff"/>
      <stop offset="0.324" stop-color="#c093ff"/>
      <stop offset="1" stop-color="#9a40ff"/>
    </linearGradient>
    <linearGradient id="linear-gradient-9" x1="-0.155" y1="0.207" x2="1.167" y2="0.799" gradientUnits="objectBoundingBox">
      <stop offset="0" stop-color="#af32ff"/>
      <stop offset="0.24" stop-color="#ac31fc"/>
      <stop offset="0.407" stop-color="#a32ff6"/>
      <stop offset="0.551" stop-color="#932deb"/>
      <stop offset="0.683" stop-color="#7d29db"/>
      <stop offset="0.805" stop-color="#6124c6"/>
      <stop offset="0.862" stop-color="#5222bb"/>
    </linearGradient>
  </defs>
  <g id="MEDISENSE_SVG_LIGHT_MODE" data-name="MEDISENSE SVG LIGHT MODE" transform="translate(-17540.117 3827.124)">
    <g id="logo" transform="translate(16440.117 -4090.177)">
      <path id="Path_47" data-name="Path 47" d="M1301.627,372.881c-2.936,15.9-17.494,27.017-33.658,27.017h-23.06a9.242,9.242,0,0,0-9.242,9.242v24.027a33.281,33.281,0,0,1-42.177,32.058,32.766,32.766,0,0,1-7.726-3.243,33.252,33.252,0,0,1-16.634-28.814V399.9a66.538,66.538,0,0,1,66.537-66.538h33.269a33.24,33.24,0,0,1,28.814,16.635,32.729,32.729,0,0,1,3.243,7.725A33.618,33.618,0,0,1,1301.627,372.881Z" transform="translate(6.086 6.086)" fill="#0092ff"/>
      <path id="Path_48" data-name="Path 48" d="M1265.571,375.485h-31.326a22.992,22.992,0,0,0-22.991,22.991V429.8a16.576,16.576,0,0,1-3.9-1.639V396.8a25.22,25.22,0,0,1,25.213-25.213h31.368A16.556,16.556,0,0,1,1265.571,375.485Z" transform="translate(9.451 9.451)" fill="url(#linear-gradient)"/>
      <path id="Path_49" data-name="Path 49" d="M1299.648,356.374h-62a45.5,45.5,0,0,0-45.5,45.505v62a32.766,32.766,0,0,1-7.726-3.243V398.552a49.916,49.916,0,0,1,49.9-49.9H1296.4A32.729,32.729,0,0,1,1299.648,356.374Z" transform="translate(7.432 7.432)" fill="url(#linear-gradient)"/>
      <path id="Path_50" data-name="Path 50" d="M1268.936,333.36h-33.269A66.538,66.538,0,0,0,1169.13,399.9h0v33.269a33.268,33.268,0,0,0,33.268,33.269h0a33.269,33.269,0,0,0,33.269-33.269V409.14a9.242,9.242,0,0,1,9.242-9.242h24.027a33.269,33.269,0,0,0,33.269-33.269h0A33.269,33.269,0,0,0,1268.936,333.36Z" transform="translate(6.086 6.086)" fill="url(#linear-gradient-3)"/>
      <path id="Path_51" data-name="Path 51" d="M1196.75,466.357c-16.348-2.69-27.952-17.5-27.952-34.063V399.927a66.9,66.9,0,0,1,66.9-66.9h32.367c16.568,0,31.374,11.6,34.064,27.951a33.678,33.678,0,0,1-33.162,39.309h-24.027a8.88,8.88,0,0,0-8.88,8.879V433.2A33.676,33.676,0,0,1,1196.75,466.357ZM1235.7,333.75a66.176,66.176,0,0,0-66.176,66.177v32.385c0,16.212,11.354,30.7,27.35,33.333a32.953,32.953,0,0,0,38.464-32.45V409.168a9.6,9.6,0,0,1,9.6-9.6h23.144c16.212,0,30.7-11.355,33.333-27.351a32.954,32.954,0,0,0-32.45-38.464Z" transform="translate(6.057 6.057)" fill="url(#linear-gradient-4)"/>
      <path id="Path_52" data-name="Path 52" d="M1268.936,333.36h-33.269A66.538,66.538,0,0,0,1169.13,399.9h0v33.269a33.268,33.268,0,0,0,33.268,33.269h0a33.269,33.269,0,0,0,33.269-33.269V409.14a9.242,9.242,0,0,1,9.242-9.242h24.027a33.269,33.269,0,0,0,33.269-33.269h0A33.269,33.269,0,0,0,1268.936,333.36Z" transform="translate(6.086 6.086)" fill="url(#linear-gradient-5)"/>
      <path id="Path_53" data-name="Path 53" d="M1200.138,264.563h0a33.268,33.268,0,0,0-33.269,33.268V331.1h-32.332c-16.46,0-31.187,11.555-33.771,27.81a33.291,33.291,0,0,0,32.835,38.728h33.268a72.046,72.046,0,0,1,16.635-41.586c18.826-22.2,44.818-24.585,49.9-24.952V297.831A33.268,33.268,0,0,0,1200.138,264.563Z" transform="translate(0.029 0.029)" fill="#9a40ff"/>
      <path id="Path_54" data-name="Path 54" d="M1200.138,264.563h0a33.268,33.268,0,0,0-33.269,33.268V331.1h-32.332c-16.46,0-31.187,11.555-33.771,27.81a33.291,33.291,0,0,0,32.835,38.728h33.268a72.046,72.046,0,0,1,16.635-41.586c18.826-22.2,44.818-24.585,49.9-24.952V297.831A33.268,33.268,0,0,0,1200.138,264.563Z" transform="translate(0.029 0.029)" fill="url(#linear-gradient-6)"/>
      <path id="Path_55" data-name="Path 55" d="M1200.138,264.563h0a33.268,33.268,0,0,0-33.269,33.268V331.1h-32.332c-16.46,0-31.187,11.555-33.771,27.81a33.291,33.291,0,0,0,32.835,38.728h33.268a72.046,72.046,0,0,1,16.635-41.586c18.826-22.2,44.818-24.585,49.9-24.952V297.831A33.268,33.268,0,0,0,1200.138,264.563Z" transform="translate(0.029 0.029)" fill="url(#linear-gradient-7)"/>
      <path id="Path_56" data-name="Path 56" d="M1167.236,398.028h-32.7c-16.568,0-31.374-11.6-34.064-27.952a33.677,33.677,0,0,1,33.162-39.307h32.908V298.763c0-16.568,11.6-31.374,27.951-34.064A33.677,33.677,0,0,1,1233.8,297.86v33.605l-.335.024c-7.145.514-31.84,3.822-49.654,24.826a71.768,71.768,0,0,0-16.549,41.376ZM1133.63,331.49a32.954,32.954,0,0,0-32.45,38.465c2.633,16,17.121,27.35,33.332,27.35h32.048a72.48,72.48,0,0,1,16.7-41.457c17.726-20.9,42.193-24.456,49.818-25.053V298.744c0-16.211-11.355-30.7-27.351-33.333a32.955,32.955,0,0,0-38.465,32.45v33.63Z" fill="url(#linear-gradient-8)"/>
      <rect id="wifiend" width="16.634" height="16.634" rx="8" transform="translate(1250.07 414.301)" fill="url(#linear-gradient-9)"/>
      <path id="Path_57" data-name="Path 57" d="M1247.925,418.828a8.5,8.5,0,1,1,6.673-6.673A8.515,8.515,0,0,1,1247.925,418.828Zm.363-16.227a8.146,8.146,0,1,0,5.862,5.867A8.159,8.159,0,0,0,1248.289,402.6Z" transform="translate(12.128 12.128)" fill="#9a40ff"/>
    </g>
    <g id="Medisense" transform="translate(16456 -4090.177)">
      <path id="Path_58" data-name="Path 58" d="M1474.639,265.007V390.2h-20.178v-82.75l-32.924,62.506h-15.223l-33.1-61.619.176,81.863h-20.178V265.007h18.055L1414.1,346.87l42.659-81.863Z" fill="#00264d"/>
      <path id="Path_59" data-name="Path 59" d="M1575.709,350.777h-58.943q1.059,12.078,7.256,17.936t17.7,5.859a41.649,41.649,0,0,0,26.2-9.234l6.372,15.272a46.41,46.41,0,0,1-15.134,7.991,58.015,58.015,0,0,1-18.32,3.019q-21.24,0-33.543-12.076t-12.3-33.029A50.813,50.813,0,0,1,1500.3,322.9a38.691,38.691,0,0,1,14.956-15.982,42.266,42.266,0,0,1,21.86-5.683q17.875,0,28.234,11.542t10.355,31.786ZM1523.4,322.542q-5.4,5.685-6.637,16.337h40q-.355-10.828-5.309-16.425t-13.806-5.594Q1528.8,316.86,1523.4,322.542Z" fill="#00264d"/>
      <path id="Path_60" data-name="Path 60" d="M1677.309,265.007V390.2H1655.36V376.17a27.752,27.752,0,0,1-11.239,11.366,33.856,33.856,0,0,1-16.727,4.084,35.772,35.772,0,0,1-19.913-5.682,37.638,37.638,0,0,1-13.63-16.071,55.666,55.666,0,0,1-4.868-23.885q0-13.492,4.868-23.617a36.947,36.947,0,0,1,13.541-15.627,36.525,36.525,0,0,1,20-5.505,34.573,34.573,0,0,1,16.637,3.907,27.083,27.083,0,0,1,11.153,11.01V265.007Zm-27.7,102.107q5.75-7.278,5.752-20.776t-5.752-20.688q-5.754-7.192-16.2-7.192-10.62,0-16.462,7.1t-5.841,20.421q0,13.5,5.841,20.954t16.286,7.459Q1643.855,374.395,1649.608,367.114Z" fill="#00264d"/>
      <path id="Path_61" data-name="Path 61" d="M1723.328,263.053V284.9H1698.9V263.053Zm-23.188,40.311h22.128V390.2H1700.14Z" fill="#00264d"/>
      <path id="Path_62" data-name="Path 62" d="M1742.446,379.9l4.07-8.347a45.307,45.307,0,0,0,13.806,8.081,48.506,48.506,0,0,0,15.932,2.4q10.441,0,16.019-3.729a12.837,12.837,0,0,0,1.858-19.622q-3.717-3.463-11.859-5.239l-14.515-3.375q-10.449-2.484-16.373-8.612a20.105,20.105,0,0,1-5.931-14.472,22.075,22.075,0,0,1,8.674-18.114q8.67-6.926,23.187-6.924a48.116,48.116,0,0,1,16.906,2.929,33.4,33.4,0,0,1,13.008,8.435l-4.07,8.346a42.118,42.118,0,0,0-12.3-7.813,36.484,36.484,0,0,0-13.541-2.486q-9.736,0-15.22,3.907a12.555,12.555,0,0,0-5.488,10.832,12.684,12.684,0,0,0,3.451,9.233q3.453,3.557,10.71,5.328l14.69,3.552q23.367,5.328,23.364,23.085a20.73,20.73,0,0,1-8.938,17.58q-8.939,6.573-24.162,6.57Q1755.365,391.442,1742.446,379.9Z" fill="#00264d"/>
      <path id="Path_63" data-name="Path 63" d="M1902.99,348.468h-64.964q.532,16.163,8.5,24.772t22.657,8.613q15.571,0,28.143-10.654l4.249,8.523a41.519,41.519,0,0,1-14.426,8.524,52.067,52.067,0,0,1-17.966,3.2q-19.65,0-30.976-11.9t-11.329-32.674a52.484,52.484,0,0,1,5.044-23.529,37.6,37.6,0,0,1,14.16-15.8,39.3,39.3,0,0,1,20.976-5.593q16.813,0,26.373,11.009t9.561,30.721Zm-55.758-29.832q-7.436,7.816-8.851,21.841h54.7q-.36-14.205-7.08-21.93t-18.942-7.725Q1854.666,310.822,1847.232,318.636Z" fill="#00264d"/>
      <path id="Path_64" data-name="Path 64" d="M1996.623,335.327V390.2h-10.8V336.038q0-12.786-5.133-18.646t-16.286-5.859q-12.742,0-20.443,7.813t-7.7,20.954v49.9h-10.8V304.074h10.621v14.739a28.733,28.733,0,0,1,11.772-12.519,35.545,35.545,0,0,1,17.787-4.35Q1996.621,301.944,1996.623,335.327Z" fill="#00264d"/>
      <path id="Path_45" data-name="Path 45" d="M2019.456,379.9l4.071-8.347a45.307,45.307,0,0,0,13.806,8.081,48.506,48.506,0,0,0,15.932,2.4q10.44,0,16.018-3.729a12.837,12.837,0,0,0,1.858-19.622q-3.716-3.463-11.859-5.239l-14.515-3.375q-10.447-2.484-16.372-8.612a20.1,20.1,0,0,1-5.931-14.472,22.074,22.074,0,0,1,8.673-18.114q8.67-6.926,23.188-6.924a48.11,48.11,0,0,1,16.905,2.929,33.4,33.4,0,0,1,13.009,8.435l-4.071,8.346a42.126,42.126,0,0,0-12.3-7.813,36.488,36.488,0,0,0-13.541-2.486q-9.738,0-15.221,3.907a13.708,13.708,0,0,0-2.036,20.065q3.452,3.557,10.709,5.328l14.691,3.552q23.365,5.328,23.364,23.085a20.731,20.731,0,0,1-8.939,17.58q-8.937,6.573-24.161,6.57Q2032.374,391.442,2019.456,379.9Z" fill="#00264d"/>
      <path id="Path_46" data-name="Path 46" d="M2180,348.468h-64.963q.531,16.163,8.5,24.772t22.658,8.613q15.572,0,28.142-10.654l4.249,8.523a41.511,41.511,0,0,1-14.426,8.524,52.062,52.062,0,0,1-17.965,3.2q-19.65,0-30.977-11.9t-11.329-32.674a52.488,52.488,0,0,1,5.044-23.529,37.59,37.59,0,0,1,14.161-15.8,39.29,39.29,0,0,1,20.975-5.593q16.813,0,26.374,11.009t9.56,30.721Zm-55.757-29.832q-7.437,7.816-8.852,21.841h54.7q-.358-14.205-7.08-21.93t-18.942-7.725Q2131.676,310.822,2124.243,318.636Z" fill="#00264d"/>
    </g>
    <line id="Line_1" data-name="Line 1" x2="310" transform="translate(18325.5 -3634.5)" fill="none" stroke="#9a40ff" stroke-linecap="round" stroke-miterlimit="10" stroke-width="4"/>
    <path id="Anytime_Anywhere" data-name="Anytime, Anywhere" d="M130.927,460.443h3.541l-17.2-39.629H114.12l-17.2,39.629h3.541l4.553-10.568h21.361Zm-24.621-13.6,9.387-21.923,9.387,21.923Zm46.881-14.334a11.311,11.311,0,0,0-5.649,1.378,9.117,9.117,0,0,0-3.738,3.962v-4.664h-3.373v27.263h3.429v-15.8a9.025,9.025,0,0,1,2.445-6.633,8.723,8.723,0,0,1,6.492-2.473,6.542,6.542,0,0,1,5.172,1.855q1.631,1.855,1.63,5.9v17.145h3.429V443.072q0-10.568-9.837-10.568h0Zm38.505.675-9.837,23.776-9.837-23.776h-3.654l11.692,27.263-4.441,10.118H179.1l16.077-37.381Zm20.517,24.733a6.062,6.062,0,0,1-4.694-1.743,7.4,7.4,0,0,1-1.6-5.172V435.934H213.9v-2.753h-7.982v-8.432h-3.429v8.432h-5.4v2.753h5.4v15.514a9.543,9.543,0,0,0,2.361,6.829q2.361,2.5,6.97,2.5a19.571,19.571,0,0,0,2.642-.169l.169-2.868a16.914,16.914,0,0,1-2.417.17h0Zm7.308,2.53h3.429V433.18h-3.429Zm-.506-38.786v4.328h4.5v-4.328Zm42.44,10.848a10.7,10.7,0,0,0-5.565,1.433,8.881,8.881,0,0,0-3.6,3.963q-1.8-5.4-8.376-5.4a9.883,9.883,0,0,0-5.143,1.321,8.553,8.553,0,0,0-3.4,3.852v-4.5H232v27.263h3.429V444.7a9.81,9.81,0,0,1,2.164-6.69,7.341,7.341,0,0,1,5.818-2.473,5.621,5.621,0,0,1,4.666,1.827q1.461,1.826,1.461,5.93v17.145h3.429V444.7a9.81,9.81,0,0,1,2.164-6.69,7.341,7.341,0,0,1,5.818-2.473,5.621,5.621,0,0,1,4.666,1.827q1.462,1.826,1.462,5.93V460.44H270.5V443.071q0-10.568-9.05-10.568h0Zm40.36,13.21q0-6.239-3.035-9.724a10.523,10.523,0,0,0-8.376-3.485,12.5,12.5,0,0,0-6.661,1.772,11.9,11.9,0,0,0-4.5,5,16.57,16.57,0,0,0-1.6,7.449q0,6.576,3.6,10.343a12.959,12.959,0,0,0,9.837,3.765,16.548,16.548,0,0,0,5.706-1.012,13.173,13.173,0,0,0,4.581-2.7l-1.349-2.7a13.5,13.5,0,0,1-8.938,3.373,9.323,9.323,0,0,1-7.2-2.726q-2.53-2.725-2.7-7.84h20.63v-1.519Zm-11.411-10.4a7.565,7.565,0,0,1,6.015,2.445,10.652,10.652,0,0,1,2.249,6.943h-17.37a11.355,11.355,0,0,1,2.811-6.914,8.3,8.3,0,0,1,6.3-2.473h0Zm17.875,20.292v4.834h2.248a7.707,7.707,0,0,1-2.192,4.553l1.8,1.405a9.588,9.588,0,0,0,2.248-3.345,10.9,10.9,0,0,0,.675-3.907v-3.542h-4.778Zm58.179,4.834H370l-17.2-39.629h-3.148l-17.2,39.629h3.541l4.553-10.568H361.9Zm-24.621-13.6,9.387-21.923,9.387,21.923ZM388.715,432.5a11.311,11.311,0,0,0-5.649,1.378,9.116,9.116,0,0,0-3.738,3.962V433.18h-3.373v27.263h3.429v-15.8a9.026,9.026,0,0,1,2.445-6.633,8.723,8.723,0,0,1,6.492-2.473,6.542,6.542,0,0,1,5.171,1.855q1.63,1.855,1.63,5.9v17.145h3.429V443.072q0-10.568-9.837-10.568h0Zm38.505.675-9.837,23.776-9.837-23.776h-3.654l11.692,27.263-4.441,10.118h3.485l16.077-37.381H427.22Zm46.038,0-8.151,23.214L456.9,433.179h-3.373l-8.376,23.214-8.095-23.214H433.4l9.893,27.263h3.541l8.263-22.822,8.207,22.822h3.541l9.949-27.263h-3.541Zm22.6-.675a11.373,11.373,0,0,0-5.593,1.349,8.994,8.994,0,0,0-3.738,3.878V420.813h-3.429v39.629h3.429v-15.8a9.025,9.025,0,0,1,2.445-6.633,8.723,8.723,0,0,1,6.492-2.473,6.542,6.542,0,0,1,5.172,1.855q1.63,1.855,1.63,5.9v17.145h3.429V443.072q0-10.568-9.837-10.568h0Zm41.2,13.21q0-6.239-3.035-9.724a10.523,10.523,0,0,0-8.376-3.485,12.5,12.5,0,0,0-6.661,1.772,11.9,11.9,0,0,0-4.5,5,16.571,16.571,0,0,0-1.6,7.449q0,6.576,3.6,10.343a12.959,12.959,0,0,0,9.837,3.765,16.549,16.549,0,0,0,5.705-1.012,13.173,13.173,0,0,0,4.581-2.7l-1.349-2.7a13.5,13.5,0,0,1-8.938,3.373,9.323,9.323,0,0,1-7.2-2.726q-2.53-2.725-2.7-7.84h20.63v-1.519Zm-11.411-10.4a7.565,7.565,0,0,1,6.015,2.445,10.652,10.652,0,0,1,2.248,6.943h-17.37a11.354,11.354,0,0,1,2.811-6.914,8.3,8.3,0,0,1,6.3-2.473h0Zm32.547-2.811-1.461.112a13.95,13.95,0,0,0-5.649,1.546,8.438,8.438,0,0,0-3.513,3.794v-4.778H544.2v27.263h3.429V444.477a8.971,8.971,0,0,1,2-5.9q1.994-2.415,6.436-2.866l2.417-.225Zm26.926,13.21q0-6.239-3.035-9.724a10.523,10.523,0,0,0-8.376-3.485,12.5,12.5,0,0,0-6.661,1.772,11.9,11.9,0,0,0-4.5,5,16.57,16.57,0,0,0-1.6,7.449q0,6.576,3.6,10.343a12.959,12.959,0,0,0,9.837,3.765,16.55,16.55,0,0,0,5.706-1.012,13.174,13.174,0,0,0,4.581-2.7l-1.349-2.7a13.5,13.5,0,0,1-8.938,3.373,9.324,9.324,0,0,1-7.2-2.726q-2.53-2.725-2.7-7.84h20.63v-1.519Zm-11.411-10.4a7.565,7.565,0,0,1,6.015,2.445,10.652,10.652,0,0,1,2.249,6.943H564.6a11.355,11.355,0,0,1,2.811-6.914,8.3,8.3,0,0,1,6.3-2.473h0Z" transform="translate(17714.795 -4083.812)" fill="#001c33" fill-rule="evenodd"/>
  </g>
</svg>
