<?xml version="1.0" standalone="no"?>
<!DOCTYPE svg PUBLIC "-//W3C//DTD SVG 20010904//EN"
 "http://www.w3.org/TR/2001/REC-SVG-20010904/DTD/svg10.dtd">
<svg version="1.0" xmlns="http://www.w3.org/2000/svg"
 width="2445.000000pt" height="717.000000pt" viewBox="0 0 2445.000000 717.000000"
 preserveAspectRatio="xMidYMid meet">

<g transform="translate(0.000000,717.000000) scale(0.100000,-0.100000)"
fill="#000000" stroke="none">
<path d="M0 3585 l0 -3585 12225 0 12225 0 0 3585 0 3585 -12225 0 -12225 0 0
-3585z m3935 1625 c19 -7 19 -8 -5 -14 -45 -12 -298 -11 -286 1 15 15 259 27
291 13z m-330 -75 c0 -28 -1 -29 -86 -46 -92 -18 -118 -28 -163 -66 -16 -13
-50 -35 -76 -48 -25 -13 -52 -30 -59 -39 -7 -8 -41 -31 -74 -50 -34 -19 -78
-51 -96 -70 -19 -20 -40 -36 -47 -36 -17 0 -111 -95 -157 -157 -21 -29 -42
-53 -46 -53 -4 0 -23 -21 -41 -47 -19 -27 -48 -64 -66 -84 -17 -20 -37 -54
-44 -75 -7 -22 -25 -52 -41 -69 -15 -16 -40 -55 -54 -85 -15 -30 -37 -70 -50
-87 -12 -18 -31 -65 -40 -105 -10 -40 -30 -98 -46 -128 -15 -30 -33 -77 -39
-103 -26 -120 -30 -625 -5 -804 9 -63 30 -136 48 -165 8 -12 27 -70 42 -127
20 -73 35 -110 51 -124 13 -11 31 -40 41 -65 12 -33 25 -48 50 -58 24 -11 33
-21 33 -39 0 -25 -15 -42 -24 -27 -3 5 -26 15 -51 22 -25 7 -45 17 -45 22 0
27 -35 77 -60 88 -20 8 -35 28 -54 70 -14 31 -26 62 -26 67 0 5 -11 20 -24 32
-13 12 -36 57 -51 99 -15 42 -36 86 -46 97 -25 28 -54 116 -63 190 -4 33 -21
93 -37 134 -34 85 -41 181 -29 381 5 90 13 135 38 205 17 50 36 135 43 189 11
90 15 102 46 136 24 28 36 53 44 96 13 68 30 104 64 136 13 13 34 42 47 65 78
142 268 353 395 440 29 19 59 46 68 59 9 14 40 35 70 49 30 13 69 35 87 49 60
45 207 115 265 126 74 13 273 38 293 36 9 -1 15 -12 15 -31z m859 -212 c19
-10 19 -11 0 -16 -36 -10 -694 -2 -696 8 -2 5 11 12 27 16 53 10 649 4 669 -8z
m226 -103 c11 -7 5 -10 -22 -10 -21 0 -38 5 -38 10 0 13 40 13 60 0z m358
-299 c3 -8 -1 -12 -9 -9 -7 2 -15 10 -17 17 -3 8 1 12 9 9 7 -2 15 -10 17 -17z
m87 -101 c-5 -8 -11 -8 -17 -2 -6 6 -7 16 -3 22 5 8 11 8 17 2 6 -6 7 -16 3
-22z m-1035 -51 c158 -19 215 -42 324 -128 20 -16 60 -37 88 -47 36 -12 55
-25 69 -48 10 -18 36 -47 57 -64 22 -17 45 -45 52 -64 8 -18 26 -51 41 -74 15
-22 42 -69 59 -105 18 -35 41 -81 52 -102 23 -45 34 -138 37 -292 2 -141 -14
-244 -49 -314 -16 -31 -40 -82 -53 -113 -28 -62 -87 -146 -136 -193 -18 -16
-45 -50 -61 -75 -24 -38 -39 -49 -85 -64 -30 -11 -72 -34 -93 -52 -21 -18 -75
-46 -119 -64 -45 -17 -86 -37 -93 -45 -22 -26 -111 -36 -290 -31 -185 5 -202
8 -237 38 -12 11 -61 32 -109 47 -81 26 -89 30 -96 59 -5 19 -16 33 -31 37
-43 12 -67 29 -67 46 0 18 36 33 45 19 3 -5 22 -14 43 -21 20 -6 46 -22 57
-34 15 -16 49 -27 131 -43 63 -12 140 -35 177 -53 l66 -31 43 31 c24 17 65 35
92 41 56 12 94 31 118 57 16 18 16 22 -7 71 -29 62 -52 75 -170 91 -174 25
-239 42 -290 76 -27 18 -65 40 -83 49 -41 21 -203 182 -236 235 -31 49 -98
102 -132 104 -18 1 -32 -6 -47 -26 -19 -25 -22 -40 -20 -127 1 -85 4 -106 26
-147 14 -26 36 -67 49 -91 17 -32 20 -47 12 -59 -17 -28 -27 -24 -64 23 -19
24 -42 47 -51 49 -18 6 -26 24 -54 115 -9 30 -30 69 -45 87 -35 40 -45 117
-45 353 0 174 15 249 55 295 10 11 30 51 44 89 14 37 39 84 56 102 16 19 36
47 45 63 8 16 30 38 48 50 18 11 39 32 45 45 6 14 29 34 51 45 21 11 48 32 59
46 11 14 53 41 94 60 40 19 90 44 110 56 76 42 304 54 518 28z m1140 -138 c0
-36 -3 -52 -10 -45 -11 11 -20 92 -12 112 10 26 22 -11 22 -67z m8855 -35 c86
-24 144 -63 180 -120 27 -45 30 -59 33 -145 2 -53 -1 -114 -5 -136 -8 -37 -12
-40 -45 -43 l-36 -3 5 95 c7 116 -9 167 -67 220 -50 45 -120 66 -250 73 -129
7 -203 -7 -267 -50 -85 -57 -127 -181 -88 -256 25 -49 95 -99 240 -173 189
-96 254 -138 318 -208 67 -71 87 -126 87 -229 -1 -137 -70 -280 -175 -364
-164 -131 -413 -175 -934 -164 -352 7 -436 27 -519 121 -44 50 -57 98 -55 196
3 123 11 144 57 148 l37 3 -8 -48 c-28 -173 22 -267 169 -315 51 -17 91 -21
213 -22 138 -1 154 1 202 23 70 31 118 86 139 157 36 123 -13 180 -262 307
-256 131 -337 200 -378 320 -43 128 6 307 116 423 88 93 194 146 355 179 137
28 239 33 563 31 260 -2 326 -6 375 -20z m2323 14 c152 -19 239 -68 284 -157
20 -41 23 -62 21 -143 -2 -133 -10 -154 -57 -158 l-37 -3 8 53 c21 137 -6 225
-83 277 -65 43 -131 56 -279 56 -111 0 -137 -3 -176 -21 -87 -41 -149 -132
-149 -221 0 -82 60 -136 265 -240 309 -156 398 -249 399 -418 2 -185 -106
-355 -276 -439 -158 -78 -356 -106 -751 -106 -347 0 -475 19 -559 83 -60 46
-85 87 -97 165 -9 51 -8 85 1 142 l13 75 37 3 36 3 -5 -94 c-7 -113 5 -155 58
-208 61 -61 148 -83 329 -84 131 0 150 2 195 23 66 30 102 66 131 127 42 88
27 155 -47 219 -24 20 -107 69 -184 108 -247 125 -335 193 -384 298 -46 100
-31 250 37 369 97 171 285 263 589 290 133 12 588 12 681 1z m-8778 -15 c0 -3
-40 -167 -90 -365 -49 -198 -90 -362 -90 -364 0 -3 241 161 535 365 l536 369
54 0 c30 0 55 -3 54 -7 0 -5 -110 -82 -244 -173 -141 -95 -245 -172 -245 -180
0 -9 92 -265 205 -570 113 -305 205 -555 205 -557 0 -8 -859 -2 -864 6 -3 5
-53 154 -110 331 -58 177 -108 325 -111 328 -3 4 -14 2 -23 -4 -15 -10 -39
-97 -177 -641 l-5 -23 -370 0 c-243 0 -370 3 -370 10 0 10 356 1443 365 1468
3 9 87 12 375 12 203 0 370 -2 370 -5z m2828 -62 c121 -351 244 -698 251 -711
10 -17 0 -32 329 483 l178 280 367 3 c244 1 367 -1 367 -8 0 -6 -82 -336 -181
-735 l-181 -725 -368 0 -367 0 152 603 c165 656 169 670 156 663 -4 -3 -190
-289 -412 -636 l-404 -631 -124 3 -124 3 -188 525 c-104 289 -201 559 -215
599 -22 60 -29 71 -36 55 -4 -10 -69 -264 -143 -564 -75 -300 -140 -562 -146
-582 -8 -33 -14 -38 -39 -38 -17 0 -30 5 -30 10 0 6 82 336 181 735 l181 725
388 0 388 0 20 -57z m-5117 -182 c5 -67 6 -127 3 -133 -4 -6 -8 -93 -9 -192
-1 -108 -5 -189 -12 -200 -10 -19 -11 -19 -17 0 -3 11 -5 96 -5 189 1 94 -3
232 -9 309 -8 103 -8 143 1 157 23 37 37 -2 48 -130z m286 -366 c3 -66 0 -170
-5 -231 -7 -97 -12 -115 -35 -146 -20 -26 -31 -59 -43 -129 -13 -76 -24 -108
-60 -170 -24 -42 -44 -81 -44 -87 0 -6 -15 -25 -34 -43 -20 -18 -49 -64 -67
-106 -17 -40 -37 -73 -43 -73 -10 0 -247 -238 -264 -264 -4 -7 -29 -28 -57
-46 -27 -19 -66 -46 -85 -61 -19 -15 -55 -38 -80 -52 -25 -13 -58 -31 -75 -40
-16 -9 -52 -24 -80 -34 -27 -9 -63 -29 -80 -44 -25 -22 -52 -31 -148 -48 -65
-12 -164 -26 -220 -31 -142 -14 -196 -21 -243 -29 -90 -17 -190 -13 -232 8
-22 11 -90 30 -152 42 -86 17 -119 28 -146 50 -19 15 -64 37 -100 49 -56 19
-66 26 -79 57 -11 25 -25 39 -55 50 -60 24 -50 37 26 30 48 -3 71 -10 88 -26
33 -32 109 -49 285 -66 84 -8 157 -17 161 -20 4 -2 22 0 41 5 19 4 113 11 209
14 270 10 324 19 400 71 19 13 71 31 115 40 44 9 114 33 155 53 89 42 246 147
312 208 26 24 51 44 55 44 4 0 54 44 110 98 68 65 110 114 128 150 14 29 32
55 40 58 8 4 31 38 50 77 20 40 44 81 55 92 19 21 53 121 65 193 5 29 17 52
38 72 l31 29 8 168 c9 221 21 283 41 232 5 -13 12 -78 14 -144z m-2312 -769
c20 -14 15 -43 -9 -52 -16 -6 -78 44 -70 57 8 14 58 11 79 -5z"/>
</g>
</svg>
