<svg xmlns="http://www.w3.org/2000/svg" version="1.1" xmlns:xlink="http://www.w3.org/1999/xlink"
    xmlns:svgjs="http://svgjs.dev/svgjs" width="1500" height="1500" viewBox="0 0 1500 1500">
    <rect width="1500" height="1500" fill="#000000"></rect>
    <g
        transform="matrix(0.6666666666666666,0,0,0.6666666666666666,249.39393939393938,438.58569500674764)">
        <svg viewBox="0 0 396 247" data-background-color="#f0eadc"
            preserveAspectRatio="xMidYMid meet" height="935" width="1500"
            xmlns="http://www.w3.org/2000/svg" xmlns:xlink="http://www.w3.org/1999/xlink">
            <g id="tight-bounds" transform="matrix(1,0,0,1,0.2400000000000091,-0.09999999999999432)">
                <svg viewBox="0 0 395.52 247.2" height="247.2" width="395.52">
                    <g>
                        <svg></svg>
                    </g>
                    <g>
                        <svg viewBox="0 0 395.52 247.2" height="247.2" width="395.52">
                            <g transform="matrix(1,0,0,1,75.54432,96.3794213897281)">
                                <svg viewBox="0 0 244.43135999999998 54.4411572205438"
                                    height="54.4411572205438" width="244.43135999999998">
                                    <g>
                                        <svg viewBox="0 0 244.43135999999998 54.4411572205438"
                                            height="54.4411572205438" width="244.43135999999998">
                                            <g>
                                                <svg
                                                    viewBox="0 0 244.43135999999998 54.4411572205438"
                                                    height="54.4411572205438"
                                                    width="244.43135999999998">
                                                    <g>
                                                        <svg
                                                            viewBox="0 0 244.43135999999998 54.4411572205438"
                                                            height="54.4411572205438"
                                                            width="244.43135999999998">
                                                            <g id="textblocktransform">
                                                                <svg
                                                                    viewBox="0 0 244.43135999999998 54.4411572205438"
                                                                    height="54.4411572205438"
                                                                    width="244.43135999999998"
                                                                    id="textblock">
                                                                    <g>
                                                                        <svg
                                                                            viewBox="0 0 244.43135999999998 54.4411572205438"
                                                                            height="54.4411572205438"
                                                                            width="244.43135999999998">
                                                                            <g
                                                                                transform="matrix(1,0,0,1,0,0)">
                                                                                <svg
                                                                                    width="244.43135999999998"
                                                                                    viewBox="2.86 -32.4 145.45 32.4"
                                                                                    height="54.4411572205438"
                                                                                    data-palette-color="#2ea673">
                                                                                    <path
                                                                                        d="M13.65 0L2.86 0 2.86-32.4 13.65-32.4 13.65 0ZM34.11-32.4L15.31-4.59 15.31-20.34 22.88-32.37 34.11-32.4ZM25.68-17.14L34.62 0 22.95 0 19.29-7.54 25.68-17.14ZM55.54 0L36.33-32.4 47.8-32.4 56.49-17.99 63.33-29.71 63.33-13.4 55.54 0ZM75.71 0L64.91 0 64.91-32.4 75.71-32.4 75.71 0ZM46.38 0L36.3 0 36.3-29.39 46.38-12.48 46.38 0ZM105.78 0L101.44 0 101.44-12.13 87.42-12.13 80.93-18.63 80.93-25.93 87.42-32.4 91.08-32.4 91.08-20.9 105.98-20.9 112.25-14.4 112.25-6.47 105.78 0ZM101.44-26.56L92.79-26.56 92.79-32.4 105.76-32.4 111.37-26.76 111.37-23.32 101.44-23.32 101.44-26.56ZM80.93-6.47L80.93-9.72 91.72-9.72 91.72-5.86 99.73-5.86 99.73 0 86.37 0 80.93-6.47ZM141.84 0L137.49 0 137.49-12.13 123.48-12.13 116.98-18.63 116.98-25.93 123.48-32.4 127.14-32.4 127.14-20.9 142.03-20.9 148.31-14.4 148.31-6.47 141.84 0ZM137.49-26.56L128.85-26.56 128.85-32.4 141.81-32.4 147.43-26.76 147.43-23.32 137.49-23.32 137.49-26.56ZM116.98-6.47L116.98-9.72 127.78-9.72 127.78-5.86 135.78-5.86 135.78 0 122.43 0 116.98-6.47Z"
                                                                                        opacity="1"
                                                                                        transform="matrix(1,0,0,1,0,0)"
                                                                                        fill="#ffffff"
                                                                                        class="wordmark-text-0"
                                                                                        data-fill-palette-color="primary"
                                                                                        id="text-0"></path>
                                                                                </svg>
                                                                            </g>
                                                                        </svg>
                                                                    </g>
                                                                </svg>
                                                            </g>
                                                        </svg>
                                                    </g>
                                                </svg>
                                            </g>
                                        </svg>
                                    </g>
                                </svg>
                            </g>
                            <g>
                                <path
                                    d="M0 123.6c0-68.262 55.338-123.6 123.6-123.6 56.599 0 104.313 38.043 118.965 89.953l-2.553 0c-14.581-50.537-61.18-87.499-116.412-87.498-66.907 0-121.145 54.239-121.145 121.145 0 66.907 54.239 121.145 121.145 121.145 55.232 0 101.831-36.961 116.412-87.498l2.553 0c-14.652 51.91-62.366 89.953-118.965 89.953-68.262 0-123.6-55.338-123.6-123.6z"
                                    fill="#ffffff" stroke="transparent"
                                    data-fill-palette-color="tertiary"></path>
                            </g>
                        </svg>
                    </g>
                    <defs></defs>
                </svg>
                <rect width="395.52" height="247.2" fill="none" stroke="none" visibility="hidden"></rect>
            </g>
        </svg>
    </g>
</svg>